<svg id="SvgjsSvg1062" width="288" height="288" xmlns="http://www.w3.org/2000/svg" version="1.1" xmlns:xlink="http://www.w3.org/1999/xlink" xmlns:svgjs="http://svgjs.com/svgjs"><defs id="SvgjsDefs1063"></defs><g id="SvgjsG1064"><svg xmlns="http://www.w3.org/2000/svg" enable-background="new 0 0 25 25" viewBox="0 0 25 25" width="288" height="288"><path fill="#485359" d="M12.475,25c-0.108,0-0.216-0.018-0.319-0.052l-7.952-2.68c-0.376-0.127-0.643-0.465-0.677-0.861L1.754,1.087C1.729,0.808,1.823,0.531,2.013,0.324S2.47,0,2.75,0h19.5c0.28,0,0.548,0.118,0.737,0.324s0.283,0.483,0.259,0.763l-1.772,20.32c-0.035,0.396-0.301,0.735-0.679,0.861l-8.003,2.68C12.689,24.983,12.582,25,12.475,25z M5.462,20.581l7.014,2.364l7.062-2.366L21.159,2H3.842L5.462,20.581z M20.478,21.32h0.01H20.478z" class="color583689 svgShape"></path><path fill="#9ea9af" d="M12.25,19.5c-0.097,0-0.195-0.019-0.287-0.057l-4.243-1.754c-0.244-0.101-0.417-0.322-0.456-0.583l-0.257-1.746c-0.06-0.41,0.223-0.791,0.633-0.852c0.406-0.061,0.791,0.223,0.852,0.633l0.195,1.325l3.563,1.473l3.556-1.47L16.395,12H7.46c-0.403,0-0.735-0.319-0.75-0.723L6.5,5.527C6.493,5.324,6.569,5.126,6.71,4.979C6.852,4.833,7.046,4.75,7.25,4.75h10.5c0.414,0,0.75,0.336,0.75,0.75s-0.336,0.75-0.75,0.75H8.028l0.155,4.25h9.067c0.216,0,0.421,0.093,0.564,0.255c0.143,0.163,0.208,0.378,0.18,0.593l-0.757,5.746c-0.035,0.266-0.209,0.493-0.457,0.595l-4.243,1.754C12.445,19.481,12.347,19.5,12.25,19.5z" class="colorDE002A svgShape"></path></svg></g></svg>